# xmcd
#
# Track frame offsets:
#	150
#	30628
#	49040
#	92073
#	119646
#	161402
#	190045
#	210783
#	245501
#	280201
#	294776
#
# Disc length: 4094 seconds
#
# Revision: 0
# Processed by: cddbd v1.5.2PL0 Copyright (c) Steve Scherf et al.
# Submitted via: dBpowerAMP V4.0
#
DISCID=8f0ffc0b
DTITLE=Slow Blow Fuse - Let Me In
DYEAR=2005
DGENRE=Blues
TTITLE0=Don't Look Down
TTITLE1=Breaking The Law
TTITLE2=That's Evil
TTITLE3=(The Devil Looks Like) My Best Friend
TTITLE4=The Bottle
TTITLE5=Slide On In
TTITLE6=Happy Blues
TTITLE7=Life I Love
TTITLE8=Millionaire Man
TTITLE9=The Harpman
TTITLE10=Let Me In
EXTD=
EXTT0=
EXTT1=
EXTT2=
EXTT3=
EXTT4=
EXTT5=
EXTT6=
EXTT7=
EXTT8=
EXTT9=
EXTT10=
PLAYORDER=
